<svg width="26" height="25" viewBox="0 0 26 25" fill="none" xmlns="http://www.w3.org/2000/svg">
<path d="M5.81982 25H0.429464V8.30878H5.81982V25ZM3.12174 6.03194C1.39808 6.03194 0 4.65914 0 3.00174C1.23372e-08 2.20563 0.328897 1.44213 0.914337 0.87919C1.49978 0.316254 2.2938 0 3.12174 0C3.94968 0 4.7437 0.316254 5.32914 0.87919C5.91459 1.44213 6.24348 2.20563 6.24348 3.00174C6.24348 4.65914 4.84482 6.03194 3.12174 6.03194ZM25.9942 25H20.6154V16.8748C20.6154 14.9384 20.5748 12.4551 17.8129 12.4551C15.0104 12.4551 14.5809 14.5589 14.5809 16.7353V25H9.19634V8.30878H14.3662V10.5856H14.4416C15.1612 9.2742 16.9192 7.89024 19.5418 7.89024C24.9971 7.89024 26 11.3446 26 15.8313V25H25.9942Z" fill="#4EB3D2"/>
</svg>
